<svg width="210mm" height="210mm" version="1.1" viewBox="0 0 793.7 793.7" xmlns="http://www.w3.org/2000/svg"><defs><clipPath id="clipPath26"><path d="m0 800h800v-800h-800z"/></clipPath><clipPath id="clipPath50"><path d="m0 800h800v-800h-800z"/></clipPath></defs><g transform="matrix(1.3333 0 0 -1.3333 0 1066.7)"><g transform="matrix(4.51 0 0 4.51 -61.532 -2750)"><g transform="matrix(.23486 0 0 .23486 -14.304 627.2)"><g clip-path="url(#clipPath26)"><g transform="translate(590.21 209.79)"><path d="m0 0c-50.808-50.808-118.36-78.788-190.21-78.788-71.852 0-139.4 27.98-190.21 78.788-50.808 50.808-78.789 118.36-78.789 190.21 0 71.852 27.981 139.4 78.789 190.21 50.807 50.807 118.36 78.788 190.21 78.788 71.853 0 139.4-27.981 190.21-78.788 50.808-50.808 78.788-118.36 78.788-190.21 0-71.853-27.98-139.4-78.788-190.21m-190.21 471.21c-155.19 0-281-125.81-281-281 0-155.19 125.81-281 281-281s281 125.81 281 281c0 155.19-125.81 281-281 281" fill="#34b47e"/></g><g transform="translate(580.31 580.31)"><path d="m0 0c-48.163 48.164-112.2 74.688-180.31 74.688s-132.15-26.524-180.31-74.688c-48.163-48.163-74.687-112.2-74.687-180.31s26.524-132.15 74.687-180.31c48.164-48.163 112.2-74.687 180.31-74.687s132.15 26.524 180.31 74.687c48.163 48.164 74.688 112.2 74.688 180.31s-26.525 132.15-74.688 180.31" fill="#34b47e"/></g><g transform="translate(400,145)"><path d="m0 0c-68.113 0-132.15 26.524-180.31 74.688s-74.688 112.2-74.688 180.31 26.525 132.15 74.688 180.31c48.163 48.164 112.2 74.688 180.31 74.688s132.15-26.524 180.31-74.688c48.164-48.163 74.688-112.2 74.688-180.31s-26.524-132.15-74.688-180.31c-48.163-48.164-112.2-74.688-180.31-74.688m0 524c-71.853 0-139.4-27.981-190.21-78.788-50.808-50.808-78.789-118.36-78.789-190.21s27.981-139.4 78.789-190.21c50.807-50.808 118.36-78.788 190.21-78.788s139.4 27.98 190.21 78.788 78.788 118.36 78.788 190.21-27.98 139.4-78.788 190.21c-50.808 50.807-118.36 78.788-190.21 78.788" fill="#fff"/></g></g></g><g transform="matrix(.23486 0 0 .23486 -14.304 627.2)"><g clip-path="url(#clipPath50)"><g transform="translate(274.45 357.62)"><path d="m0 0c-5.607-0.614-9.592-6.233-9.592-6.233s5.108-4.619 10.716-4.004c5.607 0.616 9.592 6.234 9.592 6.234s-5.108 4.618-10.716 4.003" fill="#fff"/></g><g transform="translate(608.57 386.38)"><path d="m0 0c5.607 0.616 9.592 6.234 9.592 6.234s-5.108 4.619-10.717 4.003c-5.607-0.614-9.592-6.233-9.592-6.233s5.11-4.618 10.717-4.004" fill="#fff"/></g><g transform="translate(606.86 403.08)"><path d="m0 0c3.744 4.218 2.932 11.058 2.932 11.058s-6.887-1e-3 -10.633-4.22c-3.748-4.217-2.934-11.057-2.934-11.057s6.887 1e-3 10.635 4.219" fill="#fff"/></g><g transform="translate(430.71 507.6)"><path d="m 0,0 c 0,0 4.066,5.558 2.877,11.072 -1.19,5.515 -7.189,8.899 -7.189,8.899 0,0 -4.067,-5.558 -2.877,-11.074 C -6,3.385 0,0 0,0" fill="#fff"/></g><g transform="translate(437.97 519.71)"><path d="m0 0c4.582-3.29 11.301-1.776 11.301-1.776s-0.711 6.849-5.293 10.141c-4.582 3.293-11.301 1.778-11.301 1.778s0.711-6.851 5.293-10.143" fill="#fff"/></g><g transform="translate(253.29 385.65)"><path d="m0 0c0.731-4.866 5.765-8.144 5.765-8.144s3.849 4.612 3.118 9.477c-0.73 4.866-5.763 8.144-5.763 8.144s-3.849-4.611-3.12-9.477" fill="#fff"/></g><g transform="translate(250.08 380)"><path d="m0 0c-2.116 4.934-8.334 7-8.334 7s-2.787-5.931-0.671-10.863c2.117-4.933 8.336-6.999 8.336-6.999s2.786 5.93 0.669 10.862" fill="#fff"/></g><g transform="translate(228.74 369.82)"><path d="m 0,0 c 0,0 0.613,-6.523 4.941,-9.697 4.331,-3.173 10.737,-1.793 10.737,-1.793 0,0 -0.614,6.523 -4.943,9.696 C 6.406,1.38 0,0 0,0" fill="#fff"/></g><g transform="translate(285.52 278.63)"><path d="m0 0s0.601 5.821-2.636 9.354c-3.239 3.536-9.089 3.446-9.089 3.446s-0.602-5.82 2.636-9.357c3.238-3.533 9.089-3.443 9.089-3.443" fill="#fff"/></g><g transform="translate(269.3 267.69)"><path d="m0 0s4.919-3.167 9.538-1.876c4.615 1.292 7.179 6.552 7.179 6.552s-4.922 3.167-9.537 1.875c-4.617-1.291-7.18-6.551-7.18-6.551" fill="#fff"/></g><g transform="translate(395.66 349.68)"><path d="m0 0s0.813 7.879-3.568 12.661c-4.383 4.785-12.302 4.663-12.302 4.663s-0.815-7.877 3.568-12.663c4.383-4.783 12.302-4.661 12.302-4.661" fill="#fff"/></g><g transform="translate(371.45 336.65)"><path d="m0 0c2.949-5.779 10.613-7.773 10.613-7.773s2.886 7.377-0.063 13.154c-2.947 5.781-10.612 7.774-10.612 7.774s-2.886-7.374 0.062-13.155" fill="#fff"/></g><g transform="translate(544.98 353.89)"><path d="m0 0c1.588-6.29 8.615-9.942 8.615-9.942s4.455 6.549 2.869 12.838c-1.588 6.292-8.615 9.943-8.615 9.943s-4.455-6.546-2.869-12.839" fill="#fff"/></g><g transform="translate(363.22 336.55)"><path d="m0 0c-0.236 4.934-4.931 8.715-4.931 8.715s-4.309-4.214-4.073-9.148c0.238-4.933 4.932-8.714 4.932-8.714s4.31 4.215 4.072 9.147" fill="#fff"/></g><g transform="translate(345.34 335.93)"><path d="m0 0c0.445 3.965-2.814 7.584-2.814 7.584s-3.978-2.807-4.423-6.772c-0.444-3.964 2.815-7.584 2.815-7.584s3.978 2.809 4.422 6.772" fill="#fff"/></g><g transform="translate(349.34 263.93)"><path d="m0 0c0.445 3.965-2.814 7.584-2.814 7.584s-3.978-2.807-4.423-6.772c-0.444-3.964 2.815-7.584 2.815-7.584s3.978 2.809 4.422 6.772" fill="#fff"/></g><g transform="translate(320.43 336)"><path d="m 0,0 c 0,0 6.444,0.581 9.592,4.841 3.151,4.263 1.813,10.592 1.813,10.592 0,0 -6.442,-0.579 -9.593,-4.842 C -1.337,6.328 0,0 0,0" fill="#fff"/></g><g transform="translate(531.65 343.45)"><path d="m0 0c-3.141-2.458-3.445-7.319-3.445-7.319s4.791-0.873 7.931 1.584c3.143 2.458 3.448 7.319 3.448 7.319s-4.789 0.874-7.934-1.584" fill="#fff"/></g><g transform="translate(520.62 336.63)"><path d="m0 0s5.289 3.729 5.881 8.994c0.594 5.268-3.735 10.076-3.735 10.076s-5.285-3.726-5.876-8.994c-0.594-5.267 3.73-10.076 3.73-10.076" fill="#fff"/></g><g transform="translate(318.56 362.45)"><path d="m0 0c-5.013 0.403-9.444-3.844-9.444-3.844s3.695-4.903 8.706-5.305c5.014-0.406 9.446 3.843 9.446 3.843s-3.694 4.901-8.708 5.306" fill="#fff"/></g><g transform="translate(477 257.91)"><path d="m0 0c-3.908-5.178-2.352-12.944-2.352-12.944s7.895 0.629 11.803 5.805c3.91 5.178 2.356 12.945 2.356 12.945s-7.893-0.628-11.807-5.806" fill="#fff"/></g><g transform="translate(494.44 258.9)"><path d="m0 0s-2.924-5.561-1.109-10.38c1.816-4.817 7.685-7.064 7.685-7.064s2.924 5.563 1.108 10.379c-1.815 4.817-7.684 7.065-7.684 7.065" fill="#fff"/></g><g transform="translate(269.39 364.46)"><path d="m 0,0 c 0,0 4.827,-2.903 9.229,-1.527 4.404,1.379 6.717,6.513 6.717,6.513 0,0 -4.827,2.903 -9.231,1.526 C 2.313,5.136 0,0 0,0" fill="#fff"/></g><g transform="translate(293.87 382.31)"><path d="m0 0s-4.38 2.693-8.413 1.478c-4.032-1.216-6.191-5.884-6.191-5.884s4.38-2.695 8.412-1.479c4.033 1.218 6.192 5.885 6.192 5.885" fill="#fff"/></g><g transform="translate(282.31 395.22)"><path d="m0 0c-3.409-2.474-3.914-7.592-3.914-7.592s5.022-1.105 8.431 1.368c3.408 2.475 3.914 7.592 3.914 7.592s-5.022 1.106-8.431-1.368" fill="#fff"/></g><g transform="translate(511.01 536.83)"><path d="m0 0s-5.404 1.633-9.346-0.789c-3.939-2.42-4.924-7.981-4.924-7.981s5.407-1.633 9.344 0.788c3.942 2.422 4.926 7.982 4.926 7.982" fill="#fff"/></g><g transform="translate(518.26 520.16)"><path d="m0 0s-4.148 3.829-8.75 3.372c-4.6-0.455-7.916-5.027-7.916-5.027s4.148-3.83 8.75-3.374c4.602 0.458 7.916 5.029 7.916 5.029" fill="#fff"/></g><g transform="translate(469.24 527.69)"><path d="m0 0s-1.389-6.605 1.9-11.049 10.014-5.044 10.014-5.044 1.389 6.605-1.9 11.049c-3.289 4.443-10.014 5.044-10.014 5.044" fill="#fff"/></g><g transform="translate(460.67 508.12)"><path d="m0 0c3.305-2.5 8.268-1.511 8.268-1.511s-0.399 5.044-3.704 7.544c-3.302 2.501-8.265 1.512-8.265 1.512s0.396-5.044 3.701-7.545" fill="#fff"/></g><g transform="translate(448.21 500)"><path d="m0 0c5.084-2.172 11.189 0.707 11.189 0.707s-2.138 6.401-7.222 8.574c-5.082 2.174-11.19-0.706-11.19-0.706s2.139-6.401 7.223-8.575" fill="#fff"/></g><g transform="translate(274.48 390.92)"><path d="m0 0c0.382 4.131-3.078 7.829-3.078 7.829s-4.08-2.999-4.463-7.13c-0.383-4.129 3.077-7.828 3.077-7.828s4.08 2.999 4.464 7.129" fill="#fff"/></g><g transform="translate(284.29 459.55)"><path d="m 0,0 c 0,0 5.421,-0.388 8.609,2.722 3.186,3.11 2.93,8.542 2.93,8.542 0,0 -5.421,0.385 -8.608,-2.725 C -0.256,5.43 0,0 0,0" fill="#fff"/></g><g transform="translate(296.13 447.71)"><path d="m0 0c5.403-1.168 10.852 2.818 10.852 2.818s-3.314 5.878-8.718 7.048c-5.404 1.169-10.851-2.816-10.851-2.816s3.313-5.88 8.717-7.05" fill="#fff"/></g><g transform="translate(299.03 410.23)"><path d="m0 0c-2.768-2.583-2.655-7.205-2.655-7.205s4.601-0.432 7.37 2.15 2.656 7.202 2.656 7.202-4.601 0.435-7.371-2.147" fill="#fff"/></g><g transform="translate(298.25 424.33)"><path d="m0 0c-4.571 1.098-9.279-2.186-9.279-2.186s2.704-5.062 7.275-6.161c4.57-1.097 9.278 2.186 9.278 2.186s-2.703 5.061-7.274 6.161" fill="#fff"/></g><g transform="translate(349.78 403.55)"><path d="m0 0s0.803 5.376-2.053 8.793c-2.856 3.415-8.292 3.577-8.292 3.577s-0.8-5.376 2.055-8.792c2.856-3.417 8.29-3.578 8.29-3.578" fill="#fff"/></g><g transform="translate(367 402.97)"><path d="m0 0c4.622 3.033 5.602 9.712 5.602 9.712s-6.517 1.761-11.14-1.272c-4.622-3.032-5.601-9.71-5.601-9.71s6.515-1.761 11.139 1.27" fill="#fff"/></g><g transform="translate(351.61 421.49)"><path d="m0 0c-1.452-4.278 1.276-9.072 1.276-9.072s5.083 2.142 6.536 6.421c1.452 4.278-1.276 9.073-1.276 9.073s-5.083-2.144-6.536-6.422" fill="#fff"/></g><g transform="translate(330.61 443.28)"><path d="m0 0s0.588-5.17 4.074-7.623c3.486-2.451 8.551-1.256 8.551-1.256s-0.588 5.169-4.075 7.621c-3.485 2.453-8.55 1.258-8.55 1.258" fill="#fff"/></g><g transform="translate(251.24 442.67)"><path d="m0 0c-0.024 5.527-5.091 9.987-5.091 9.987s-5.027-4.504-5.003-10.033c0.025-5.528 5.093-9.988 5.093-9.988s5.024 4.505 5.001 10.034" fill="#fff"/></g><g transform="translate(254.82 485.74)"><path d="m0 0s2.152 4.493 0.572 8.256c-1.581 3.763-6.297 5.37-6.297 5.37s-2.153-4.493-0.573-8.256c1.581-3.763 6.298-5.37 6.298-5.37" fill="#fff"/></g><g transform="translate(275.86 528.54)"><path d="m0 0c-4.941-1.218-7.836-6.717-7.836-6.717s5.118-3.523 10.061-2.306c4.942 1.219 7.837 6.718 7.837 6.718s-5.119 3.522-10.062 2.305" fill="#fff"/></g><g transform="translate(269.33 545.85)"><path d="m0 0c-4.192-2.885-4.958-9.052-4.958-9.052s6.033-1.488 10.227 1.397c4.193 2.886 4.958 9.054 4.958 9.054s-6.033 1.486-10.227-1.399" fill="#fff"/></g><g transform="translate(252.63 546.83)"><path d="m0 0s4.339 4.447 3.979 9.524c-0.362 5.077-5.29 8.863-5.29 8.863s-4.341-4.446-3.981-9.524c0.363-5.077 5.292-8.863 5.292-8.863" fill="#fff"/></g><g transform="translate(246.89 536.96)"><path d="m0 0s0.905 6.146-2.366 10.048c-3.271 3.898-9.483 4.073-9.483 4.073s-0.907-6.146 2.364-10.047c3.273-3.899 9.485-4.074 9.485-4.074" fill="#fff"/></g><g transform="translate(220.38 516.66)"><path d="m0 0c4.783-1.741 10.251 1.213 10.251 1.213s-2.289 5.776-7.071 7.519-10.25-1.211-10.25-1.211 2.287-5.777 7.07-7.521" fill="#fff"/></g><g transform="translate(233.75 530.78)"><path d="m0 0s0.111 6.212-3.632 9.662c-3.743 3.448-9.926 2.827-9.926 2.827s-0.113-6.212 3.63-9.663c3.744-3.448 9.928-2.826 9.928-2.826" fill="#fff"/></g><g transform="translate(273.86 553.38)"><path d="m0 0c3.989 3.162 4.337 9.367 4.337 9.367s-6.119 1.076-10.109-2.084c-3.989-3.161-4.337-9.365-4.337-9.365s6.119-1.079 10.109 2.082" fill="#fff"/></g><g transform="translate(227.18 471.82)"><path d="m0 0c-3.586-1.95-4.714-6.804-4.714-6.804s4.686-1.692 8.272 0.256 4.713 6.802 4.713 6.802-4.685 1.693-8.271-0.254" fill="#fff"/></g><g transform="translate(232.53 494.11)"><path d="m0 0c1.582-3.763 6.298-5.37 6.298-5.37s2.152 4.493 0.572 8.256c-1.58 3.762-6.297 5.37-6.297 5.37s-2.153-4.493-0.573-8.256" fill="#fff"/></g><g transform="translate(223.29 501.27)"><path d="m0 0c-3.662 3.25-9.599 2.542-9.599 2.542s2e-3 -5.978 3.664-9.229c3.663-3.25 9.6-2.542 9.6-2.542s-3e-3 5.978-3.665 9.229" fill="#fff"/></g><g transform="translate(220.42 476.46)"><path d="m0 0c4.896 0.104 8.77 4.658 8.77 4.658s-4.064 4.384-8.96 4.28c-4.895-0.103-8.769-4.657-8.769-4.657s4.063-4.384 8.959-4.281" fill="#fff"/></g><g transform="translate(233.85 426.99)"><path d="m0 0s3.675 5.66 2.208 10.992c-1.467 5.329-7.522 8.312-7.522 8.312s-3.676-5.66-2.21-10.991c1.468-5.332 7.524-8.313 7.524-8.313" fill="#fff"/></g><g transform="translate(210.79 437.08)"><path d="m0 0s-1.833-6.496 1.148-11.152c2.983-4.656 9.651-5.707 9.651-5.707s1.831 6.495-1.151 11.152c-2.981 4.654-9.648 5.707-9.648 5.707" fill="#fff"/></g><g transform="translate(227.46 456.43)"><path d="m0 0s-6.057 2.977-11.176 0.888c-5.118-2.09-7.359-8.457-7.359-8.457s6.057-2.978 11.176-0.889c5.118 2.092 7.359 8.458 7.359 8.458" fill="#fff"/></g><g transform="translate(197.45 456.71)"><path d="m0 0s1.426 5.106-0.924 8.761c-2.351 3.65-7.591 4.466-7.591 4.466s-1.428-5.108 0.922-8.76c2.352-3.653 7.593-4.467 7.593-4.467" fill="#fff"/></g><g transform="translate(181.36 448.29)"><path d="m0 0c4.047-2.925 9.997-1.604 9.997-1.604s-0.61 6.064-4.656 8.991c-4.044 2.925-9.994 1.603-9.994 1.603s0.608-6.064 4.653-8.99" fill="#fff"/></g><g transform="translate(181.73 434.01)"><path d="m0 0c4.469 0.524 7.613 5.028 7.613 5.028s-4.1 3.654-8.57 3.13c-4.467-0.523-7.611-5.027-7.611-5.027s4.1-3.654 8.568-3.131" fill="#fff"/></g><g transform="translate(189.25 427.43)"><path d="m0 0s-5.737 2.055-10.118-0.341c-4.379-2.394-5.743-8.335-5.743-8.335s5.736-2.056 10.117 0.338c4.381 2.397 5.744 8.338 5.744 8.338" fill="#fff"/></g><g transform="translate(195.19 412.94)"><path d="m0 0s-4.818 0.858-7.967-1.624c-3.147-2.483-3.431-7.37-3.431-7.37s4.818-0.86 7.966 1.623c3.147 2.484 3.432 7.371 3.432 7.371" fill="#fff"/></g><g transform="translate(195.61 397.54)"><path d="m0 0c-2.631-3.367-1.688-8.501-1.688-8.501s5.207 0.329 7.838 3.697c2.631 3.369 1.689 8.502 1.689 8.502s-5.207-0.33-7.839-3.698" fill="#fff"/></g><g transform="translate(339.91 500.65)"><path d="m0 0s-4.917-4.623-4.764-10.149c0.156-5.526 5.327-9.865 5.327-9.865s4.919 4.622 4.765 10.149c-0.157 5.526-5.328 9.865-5.328 9.865" fill="#fff"/></g><g transform="translate(325.93 492.91)"><path d="m0 0c1.906 5.19-1.286 11.138-1.286 11.138s-6.281-2.467-8.19-7.657c-1.906-5.188 1.287-11.136 1.287-11.136s6.281 2.466 8.189 7.655" fill="#fff"/></g><g transform="translate(313.57 511.37)"><path d="m0 0s-6.744-0.245-10.265-4.508c-3.519-4.263-2.48-10.932-2.48-10.932s6.744 0.243 10.265 4.506c3.519 4.265 2.48 10.934 2.48 10.934" fill="#fff"/></g><g transform="translate(297.55 525.42)"><path d="m0 0c-5.228-1.797-7.826-8.027-7.826-8.027s5.878-3.315 11.107-1.52c5.228 1.798 7.827 8.027 7.827 8.027s-5.879 3.315-11.108 1.52" fill="#fff"/></g><g transform="translate(329.01 540.99)"><path d="m0 0c2.118 3.153 0.958 7.643 0.958 7.643s-4.594-0.623-6.713-3.775-0.958-7.641-0.958-7.641 4.594 0.622 6.713 3.773" fill="#fff"/></g><g transform="translate(321 551.94)"><path d="m0 0c1.259 2.616-0.107 5.885-0.107 5.885s-3.408-0.971-4.668-3.585c-1.259-2.615 0.107-5.885 0.107-5.885s3.408 0.971 4.668 3.585" fill="#fff"/></g><g transform="translate(343.81 533.12)"><path d="m0 0c3.86 3.958 3.377 10.69 3.377 10.69s-6.741 0.315-10.603-3.641c-3.86-3.957-3.377-10.691-3.377-10.691s6.741-0.314 10.603 3.642" fill="#fff"/></g><g transform="translate(413.05 600.05)"><path d="m0 0s3.555 5.736 1.977 11.035c-1.581 5.298-7.698 8.152-7.698 8.152s-3.554-5.737-1.976-11.036c1.58-5.297 7.697-8.151 7.697-8.151" fill="#fff"/></g><g transform="translate(484.32 418.57)"><path d="m0 0c-2.725-4.159-1.137-10.018-1.137-10.018s6.004 0.884 8.731 5.041c2.724 4.159 1.138 10.019 1.138 10.019s-6.005-0.884-8.732-5.042" fill="#fff"/></g><g transform="translate(478.85 417.93)"><path d="m0 0c-2.367 3.404-7.395 4.008-7.395 4.008s-1.191-4.922 1.174-8.327c2.367-3.406 7.393-4.008 7.393-4.008s1.191 4.92-1.172 8.327" fill="#fff"/></g><g transform="translate(332.41 480.91)"><path d="m0 0s-3.721-3.47-3.62-7.635c0.103-4.165 3.986-7.45 3.986-7.45s3.72 3.47 3.62 7.635c-0.102 4.166-3.986 7.45-3.986 7.45" fill="#fff"/></g><g transform="translate(315.2 466.4)"><path d="m0 0s4.247-0.065 6.597 2.5c2.351 2.565 1.913 6.791 1.913 6.791s-4.248 0.064-6.597-2.501c-2.349-2.566-1.913-6.79-1.913-6.79" fill="#fff"/></g><g transform="translate(310.23 474.58)"><path d="m0 0c-1.683 3.045-5.825 3.979-5.825 3.979s-1.416-4.005 0.265-7.05c1.683-3.046 5.827-3.979 5.827-3.979s1.416 4.005-0.267 7.05" fill="#fff"/></g><g transform="translate(344.01 466.58)"><path d="m0 0c-3.19-1.38-4.517-5.409-4.517-5.409s3.844-1.794 7.035-0.417c3.189 1.379 4.518 5.409 4.518 5.409s-3.846 1.794-7.036 0.417" fill="#fff"/></g><g transform="translate(348.39 450.22)"><path d="m0 0s-2.009 3.738-5.389 4.543c-3.382 0.803-6.855-1.633-6.855-1.633s2.006-3.736 5.388-4.542c3.38-0.803 6.856 1.632 6.856 1.632" fill="#fff"/></g><g transform="translate(463.3 475.49)"><path d="m0 0s-2.123-4.751-0.369-8.636 6.724-5.431 6.724-5.431 2.122 4.75 0.368 8.634c-1.754 3.885-6.723 5.433-6.723 5.433" fill="#fff"/></g><g transform="translate(514.01 502.98)"><path d="m0 0s-1.242 4.058-4.4 5.505c-3.161 1.445-7.041-0.267-7.041-0.267s1.24-4.056 4.398-5.504c3.16-1.446 7.043 0.266 7.043 0.266" fill="#fff"/></g><g transform="translate(473.08 481.16)"><path d="m0 0s-0.174-4.237 2.328-6.651c2.502-2.411 6.733-2.082 6.733-2.082s0.171 4.24-2.329 6.652c-2.503 2.411-6.732 2.081-6.732 2.081" fill="#fff"/></g><g transform="translate(555.52 511.3)"><path d="m0 0s3.172 4.992 1.842 9.652c-1.332 4.658-6.666 7.218-6.666 7.218s-3.172-4.991-1.842-9.651c1.334-4.658 6.666-7.219 6.666-7.219" fill="#fff"/></g><g transform="translate(520.84 496.43)"><path d="m0 0s-1.283-3.38 0.088-6.003c1.373-2.624 4.881-3.499 4.881-3.499s1.283 3.379-0.088 6.003c-1.373 2.624-4.881 3.499-4.881 3.499" fill="#fff"/></g><g transform="translate(579.11 473.03)"><path d="m0 0s-5.135 4.38-10.611 3.617c-5.475-0.763-9.217-6.381-9.217-6.381s5.135-4.378 10.611-3.617c5.475 0.762 9.217 6.381 9.217 6.381" fill="#fff"/></g><g transform="translate(550.85 492.45)"><path d="m 0,0 c 0,0 3.693,-3.59 7.902,-3.282 4.209,0.307 7.34,4.402 7.34,4.402 0,0 -3.693,3.593 -7.904,3.283 C 3.129,4.094 0,0 0,0" fill="#fff"/></g><g transform="translate(516.43 482.22)"><path d="m0 0s0.789 4.227-1.371 7.008c-2.158 2.781-6.449 3.064-6.449 3.064s-0.787-4.224 1.371-7.007c2.158-2.782 6.449-3.065 6.449-3.065" fill="#fff"/></g><g transform="translate(574.93 515.48)"><path d="m0 0c0.639 4.764-3.188 9.209-3.188 9.209s-4.865-3.275-5.509-8.037c-0.643-4.763 3.187-9.209 3.187-9.209s4.869 3.274 5.51 8.037" fill="#fff"/></g><g transform="translate(514.83 562.68)"><path d="m0 0c-5.514-0.406-9.613-5.769-9.613-5.769s4.84-4.702 10.353-4.299c5.512 0.404 9.614 5.767 9.614 5.767s-4.84 4.705-10.354 4.301" fill="#fff"/></g><g transform="translate(504.47 570.74)"><path d="m0 0s6.381-2.198 11.199 0.51c4.819 2.71 6.25 9.307 6.25 9.307s-6.381 2.203-11.199-0.508c-4.818-2.712-6.25-9.309-6.25-9.309" fill="#fff"/></g><g transform="translate(507.92 585.24)"><path d="m0 0c3.736 4.073 3.045 10.789 3.045 10.789s-6.748 0.109-10.486-3.965c-3.737-4.075-3.045-10.79-3.045-10.79s6.746-0.105 10.486 3.966" fill="#fff"/></g><g transform="translate(487.92 587.64)"><path d="m0 0s5.166 4.341 5.324 9.867c0.155 5.526-4.769 10.147-4.769 10.147s-5.168-4.339-5.323-9.868c-0.154-5.525 4.768-10.146 4.768-10.146" fill="#fff"/></g><g transform="translate(475.67 590.01)"><path d="m0 0s0.947 6.681-2.623 10.899c-3.574 4.218-10.324 4.372-10.324 4.372s-0.953-6.681 2.623-10.9c3.574-4.217 10.324-4.371 10.324-4.371" fill="#fff"/></g><g transform="translate(464.48 576.61)"><path d="m0 0c5.52 0.313 9.707 5.608 9.707 5.608s-4.762 4.781-10.281 4.471c-5.52-0.313-9.707-5.61-9.707-5.61s4.76-4.783 10.281-4.469" fill="#fff"/></g><g transform="translate(466.99 571.19)"><path d="m0 0c-4.973-2.416-6.795-8.917-6.795-8.917s6.236-2.58 11.209-0.162c4.973 2.416 6.797 8.915 6.797 8.915s-6.238 2.577-11.211 0.164" fill="#fff"/></g><g transform="translate(581.81 494.64)"><path d="m0 0s5.215 4.282 5.43 9.808c0.213 5.524-4.659 10.197-4.659 10.197s-5.212-4.284-5.429-9.808c-0.215-5.523 4.658-10.197 4.658-10.197" fill="#fff"/></g><g transform="translate(550 485.86)"><path d="m0 0c-4.795 0.482-9.123-3.501-9.123-3.501s3.445-4.769 8.24-5.253c4.793-0.484 9.123 3.5 9.123 3.5s-3.443 4.769-8.24 5.254" fill="#fff"/></g><g transform="translate(535.77 501.69)"><path d="m0 0s4.457 3.859 4.518 8.69c0.056 4.831-4.301 8.8-4.301 8.8s-4.457-3.861-4.518-8.692c-0.06-4.828 4.301-8.798 4.301-8.798" fill="#fff"/></g><g transform="translate(547.17 497.35)"><path d="m0 0c2.467 2.313 2.357 6.437 2.357 6.437s-4.109 0.377-6.578-1.933c-2.465-2.31-2.357-6.435-2.357-6.435s4.109-0.38 6.578 1.931" fill="#fff"/></g><g transform="translate(547.04 471.12)"><path d="m0 0c-3.068 1.729-7.133 0.329-7.133 0.329s0.908-4.202 3.977-5.931c3.068-1.727 7.133-0.327 7.133-0.327s-0.911 4.2-3.977 5.929" fill="#fff"/></g><g transform="translate(449.21 425.93)"><path d="m0 0c-1.906 4.097-7.195 5.676-7.195 5.676s-2.194-5.062-0.285-9.159c1.906-4.098 7.193-5.677 7.193-5.677s2.191 5.061 0.287 9.16" fill="#fff"/></g><g transform="translate(435.68 412.43)"><path d="m 0,0 c 0,0 2.566,-2.635 5.578,-2.497 3.01,0.138 5.324,2.998 5.324,2.998 0,0 -2.566,2.635 -5.576,2.498 C 2.314,2.862 0,0 0,0" fill="#fff"/></g><g transform="translate(454.29 421.72)"><path d="m0 0c-2.234-2.022-2.199-5.702-2.199-5.702s3.658-0.4 5.892 1.623c2.235 2.022 2.198 5.702 2.198 5.702s-3.657 0.398-5.891-1.623" fill="#fff"/></g><g transform="translate(601.24 491.63)"><path d="m0 0c3.309 4.43 1.945 11.04 1.945 11.04s-6.722-0.572-10.033-5c-3.308-4.428-1.947-11.04-1.947-11.04s6.724 0.57 10.035 5" fill="#fff"/></g><g transform="translate(601.44 473.2)"><path d="m0 0s5.449 0.462 8.131 4.051c2.682 3.59 1.578 8.946 1.578 8.946s-5.449-0.464-8.131-4.052c-2.682-3.587-1.578-8.945-1.578-8.945" fill="#fff"/></g><g transform="translate(606.77 463.28)"><path d="m 0,0 c 0,0 5.918,-3.245 11.125,-1.386 5.207,1.861 7.729,8.121 7.729,8.121 0,0 -5.918,3.244 -11.125,1.386 C 2.521,6.262 0,0 0,0" fill="#fff"/></g><g transform="translate(619.18 438.29)"><path d="m0 0c-5.084 2.172-11.188-0.71-11.188-0.71s2.139-6.401 7.223-8.574c5.086-2.171 11.19 0.711 11.19 0.711s-2.141 6.399-7.225 8.573" fill="#fff"/></g><g transform="translate(519.69 443.92)"><path d="m0 0c-2.484-4.938 0.014-11.211 0.014-11.211s6.521 1.738 9.006 6.677c2.482 4.94-0.014 11.211-0.014 11.211s-6.52-1.739-9.006-6.677" fill="#fff"/></g><g transform="translate(536.48 443.08)"><path d="m0 0c-4.568-3.674-4.916-10.825-4.916-10.825s7.057-1.192 11.627 2.481c4.568 3.675 4.918 10.825 4.918 10.825s-7.057 1.191-11.629-2.481" fill="#fff"/></g><g transform="translate(625.22 448.03)"><path d="m0 0s-2.904 4.948-7.512 5.865c-4.609 0.914-9.181-2.553-9.181-2.553s2.902-4.95 7.511-5.865c4.61-0.914 9.182 2.553 9.182 2.553" fill="#fff"/></g><g transform="translate(398.39 595.22)"><path d="m0 0c4.17-1.479 8.903 1.13 8.903 1.13s-2.031 5.007-6.203 6.487c-4.172 1.479-8.905-1.131-8.905-1.131s2.033-5.006 6.205-6.486" fill="#fff"/></g><g transform="translate(429.17 599.03)"><path d="m0 0c-4.383-0.622-7.369-5.126-7.369-5.126s4.119-3.495 8.502-2.876c4.383 0.62 7.367 5.125 7.367 5.125s-4.117 3.496-8.5 2.877" fill="#fff"/></g><g transform="translate(428.88 605.5)"><path d="m0 0c2.777 3.444 1.885 8.774 1.885 8.774s-5.397-0.256-8.176-3.702c-2.777-3.445-1.887-8.775-1.887-8.775s5.399 0.259 8.178 3.703" fill="#fff"/></g><g transform="translate(318.53 607.1)"><path d="m0 0c2.823 3.116 2.268 8.221 2.268 8.221s-5.132 0.05-7.957-3.065c-2.824-3.115-2.269-8.219-2.269-8.219s5.133-0.052 7.958 3.063" fill="#fff"/></g><g transform="translate(312.69 593.69)"><path d="m 0,0 c 0,0 4.642,-2.191 8.51,-0.54 3.866,1.652 5.493,6.521 5.493,6.521 0,0 -4.642,2.19 -8.509,0.54 C 1.627,4.869 0,0 0,0" fill="#fff"/></g><g transform="translate(325.68 582.95)"><path d="m0 0s5.133 0.04 7.901 3.206c2.767 3.166 2.12 8.259 2.12 8.259s-5.132-0.041-7.9-3.206-2.121-8.259-2.121-8.259" fill="#fff"/></g><g transform="translate(350.74 587.62)"><path d="m0 0c2.049 4.399-0.305 9.839-0.305 9.839s-5.676-1.696-7.728-6.095c-2.051-4.398 0.304-9.838 0.304-9.838s5.677 1.694 7.729 6.094" fill="#fff"/></g><g transform="translate(304.45 600.83)"><path d="m0 0s0.795 5.871-2.366 9.554c-3.161 3.682-9.088 3.78-9.088 3.78s-0.797-5.871 2.365-9.555c3.163-3.681 9.089-3.779 9.089-3.779" fill="#fff"/></g><g transform="translate(289.02 590.41)"><path d="m0 0c4.481-1.864 9.817 0.715 9.817 0.715s-1.931 5.6-6.411 7.467c-4.48 1.866-9.817-0.713-9.817-0.713s1.929-5.603 6.411-7.469" fill="#fff"/></g><g transform="translate(291.2 573.09)"><path d="m0 0c4.825 0.519 8.266 5.344 8.266 5.344s-4.385 3.984-9.211 3.469c-4.825-0.516-8.266-5.343-8.266-5.343s4.383-3.987 9.211-3.47" fill="#fff"/></g><g transform="translate(298.5 565.54)"><path d="m0 0c-3.335-3.525-2.819-9.431-2.819-9.431s5.922-0.185 9.258 3.342c3.334 3.526 2.818 9.431 2.818 9.431s-5.922 0.183-9.257-3.342" fill="#fff"/></g><g transform="translate(294.84 531.61)"><path d="m0 0c5.515-0.389 10.341 4.329 10.341 4.329s-4.115 5.349-9.63 5.74c-5.514 0.39-10.341-4.33-10.341-4.33s4.115-5.348 9.63-5.739" fill="#fff"/></g><g transform="translate(300.23 349.42)"><path d="m0 0c-1.614-3.201-1e-3 -7.27-1e-3 -7.27s4.229 1.124 5.843 4.323c1.615 3.2 2e-3 7.267 2e-3 7.267s-4.23-1.121-5.844-4.32" fill="#fff"/></g><g transform="translate(295.08 349.41)"><path d="m0 0c-1.596 3.209-5.818 4.354-5.818 4.354s-1.637-4.058-0.042-7.267c1.596-3.21 5.82-4.356 5.82-4.356s1.634 4.059 0.04 7.269" fill="#fff"/></g><g transform="translate(284.1 330.85)"><path d="m0 0c3.394-1.155 7.199 1.005 7.199 1.005s-1.697 4.032-5.089 5.189c-3.392 1.156-7.197-1.004-7.197-1.004s1.695-4.034 5.087-5.19" fill="#fff"/></g><g transform="translate(195.15 324.05)"><path d="m0 0c3.389-1.17 7.204 0.975 7.204 0.975s-1.682 4.04-5.069 5.21c-3.388 1.169-7.202-0.976-7.202-0.976s1.68-4.04 5.067-5.209" fill="#fff"/></g><g transform="translate(195.86 318.95)"><path d="m0 0c-2.966-2.013-3.533-6.352-3.533-6.352s4.242-1.075 7.207 0.937c2.967 2.013 3.534 6.352 3.534 6.352s-4.242 1.074-7.208-0.937" fill="#fff"/></g><g transform="translate(209.3 311.81)"><path d="m0 0c-0.688-3.517 1.962-6.997 1.962-6.997s3.77 2.223 4.46 5.739c0.688 3.518-1.964 6.998-1.964 6.998s-3.768-2.222-4.458-5.74" fill="#fff"/></g><g transform="translate(581.62 306.23)"><path d="m0 0c-3.387-1.17-5.068-5.21-5.068-5.21s3.814-2.144 7.205-0.975c3.386 1.169 5.066 5.209 5.066 5.209s-3.814 2.145-7.203 0.976" fill="#fff"/></g><g transform="translate(583.05 294.95)"><path d="m0 0c-2.967 2.011-7.209 0.937-7.209 0.937s0.568-4.339 3.533-6.352c2.967-2.012 7.209-0.937 7.209-0.937s-0.568 4.339-3.533 6.352" fill="#fff"/></g><g transform="translate(565.15 293.55)"><path d="m0 0s-2.652-3.48-1.965-6.998c0.69-3.517 4.459-5.739 4.459-5.739s2.652 3.48 1.963 6.997-4.457 5.74-4.457 5.74" fill="#fff"/></g><g transform="translate(546.29 392.23)"><path d="m0 0c-3.389 1.169-7.203-0.976-7.203-0.976s1.68-4.04 5.068-5.209c3.389-1.169 7.203 0.975 7.203 0.975s-1.681 4.04-5.068 5.21" fill="#fff"/></g><g transform="translate(544.86 380.95)"><path d="m0 0c-2.967-2.013-3.533-6.352-3.533-6.352s4.242-1.075 7.207 0.937c2.967 2.013 3.533 6.352 3.533 6.352s-4.242 1.074-7.207-0.937" fill="#fff"/></g><g transform="translate(564.72 372.56)"><path d="m0 0c0.689 3.518-1.965 6.998-1.965 6.998s-3.765-2.223-4.457-5.74c-0.687-3.517 1.963-6.997 1.963-6.997s3.77 2.222 4.459 5.739" fill="#fff"/></g><g transform="translate(622.25 355.72)"><path d="m0 0c3.07 1.059 4.592 4.719 4.592 4.719s-3.457 1.943-6.526 0.884c-3.068-1.06-4.591-4.72-4.591-4.72s3.455-1.943 6.525-0.883" fill="#fff"/></g><g transform="translate(621.61 351.1)"><path d="m0 0c-2.686 1.822-6.529 0.849-6.529 0.849s0.513-3.931 3.201-5.754c2.687-1.823 6.529-0.849 6.529-0.849s-0.513 3.931-3.201 5.754" fill="#fff"/></g><g transform="translate(617.24 365.23)"><path d="m0 0c1.629 2.81 0.389 6.572 0.389 6.572s-3.887-0.789-5.516-3.596c-1.629-2.81-0.387-6.575-0.387-6.575s3.885 0.79 5.514 3.599" fill="#fff"/></g><g transform="translate(610.46 348.1)"><path d="m0 0s-2.684-2.919-2.357-6.149c0.33-3.23 3.544-5.549 3.544-5.549s2.682 2.918 2.354 6.148c-0.33 3.231-3.541 5.55-3.541 5.55" fill="#fff"/></g><g transform="translate(455.01 457.11)"><path d="m0 0c-1.605 0.58-3.256 1.274-4.951 2.088zm157.82-102.89s-6.741 0.916-10.547 6.737c-0.108 2.33-0.374 4.661-0.804 6.981-2.33 12.58-7.477 24.045-15.03 32.771 47.052 63.501-23.367 103.76-23.367 103.76 32.162-37.37 27.304-63.373 18.211-78.237-5.383-1.617-10.679 2.087-10.679 2.087 1.926-4.221 4.805-6.047 7.429-6.769-2.989-3.819-6.017-6.567-8.117-8.252-13.634 6.256-31.005 6.032-51.187-4.398 0 0 39.052 10.24 49.291-12.969 0.015-0.036 0.029-0.073 0.045-0.109-3.188-10.015-13.52-11.422-13.52-11.422 9.49-5.203 14.897 2.333 16.007 4.12 5.797-22.755-3.668-52.13-31.884-56.581-11.8-1.861-26.524 0.639-41.372 1.335 7.835 7.459 10.948 17.916 10.309 26.847l0.083-0.117c-0.037 0.098-0.062 0.19-0.097 0.288-0.239 3.095-0.929 6.003-2.029 8.531-1.773 17.02 13.167 21.476 13.167 21.476-24.375 10.752-25.358-10.138-25.358-10.138l0.13-0.183c-10.363 8.645-13.378 24.945-13.378 24.945-10.75-12.799 2.787-29.157 7.551-36.297 5.336-7.998 2.363-16.094-3.368-23.059-9.351-2.836-13.741 7.212-13.741 7.212-1.194-9.894 7.04-12.711 8.108-13.033-5.829-5.249-12.468-9.425-16.55-11.779-1.307-0.634-2.595-1.334-3.857-2.11l-4e-3 -2e-3h1e-3c-2.482-1.524-4.868-3.337-7.142-5.475 2.694 23.717 0.76 43.58-7.552 60.873 24.428 14.191 6.619 31.955 6.619 31.955 2.601-17.019-6.666-20.177-13.483-20.302-0.288 0.409-0.563 0.822-0.859 1.229l0.041 0.111c-7.363 11.579-13.721 37.011 0 40.015 10.94 2.396 43.605-13.568 62.131-0.529 8.727-19.463 30.259-5.082 30.259-5.082-13.925-3.81-19.972 7.069-22.382 14.169 1.386 2.584 2.546 5.586 3.42 9.088 1.206 4.832 1.214 9.22 0.468 13.162 10.725 0.438 31.78 4.762 23.932 32.867 0 0-0.02-24.238-28.349-21.91-5.734 8.985-14.421 13.685-14.421 13.685 9.385-10.79-2.779-40.808-31.211-34.024-9.366 15.796-3.991 29.264 15.426 33.989 27.957 6.803 18.211 34.353 18.211 34.353 0.135-23.371-28.453-24.993-41.105-29.378-16.482-5.71-18.742-17.581-13.057-30.353-18.415 6.607-33.648-0.647-38.806-15.585-2e-3 3e-3 -3e-3 6e-3 -5e-3 9e-3 -0.582 10.078-3.183 23.01-3.401 35.754 2.541-1.023 9.319-2.806 13.562 4.965 0 0-6.824-3.162-13.496 0.478 0.624 14.266 5.091 27.74 19.753 36.039 23.073 13.06 41.162 7.696 55.863 10.693 20.094 4.097 27.376 13.071 27.376 26.685 0 19.333-21.117 21.999-21.117 21.999 11.334-3.333 16.656-40-36.01-32-2.031 0.308-3.994 0.513-5.903 0.642 1.121 5.752 1.961 15.533-3.781 20.407 0 0-6e-3 -12.949-7.018-20.621-27.536-3.145-39.867-25.966-44.639-38.651-0.738 13.38 0.695 26.065 4.436 37.691 8.004-0.142 19.676 1.872 24.165 13.85 0 0-12.29-5.307-19.559-2.415 5.859 11.963 14.562 22.496 26.316 31.099-9.888-2.15-20.534-6.341-30.346-13.052-23.104 9.002-19.424 30.734-19.424 30.734-10.523-21.7 5.183-32.359 12.55-35.982-2.959-2.522-5.789-5.32-8.451-8.391-2.783 4.245-11.697 10.761-40.254 9.355-30.451-1.5-22.366 21.667-22.366 21.667s-18.934-25.333 16.769-31.667c8.696-1.593 37.189 0.667 35.445-14.666l0.014 0.014c-3.916-7.513-6.925-16.142-8.672-26-36.636-14.832-43.098 25.3-43.098 25.3-8.407-43.409 27.896-48.04 41.416-48.287 0.548-27.204 9.367-61.523 30.944-104.34-17.78-6.073-44.631-1.271-53.292 17.274-10.2 21.845 5.738 43.483 5.738 43.483-3.269-0.921-6.391-2.51-9.259-4.639-8.142-1.246-11.979 7.533-11.979 7.533-0.947-7.847 4.087-11.207 6.684-12.402-2.839-3.194-5.252-6.998-7.073-11.238-5.847-2.161-17.546-4.405-27.197 6.749-13.456 15.552 0.828 32.641-0.012 44.865-0.423 6.144-3.232 14.987-13.112 18.555-18.885 12.02-10.278 37.447-10.278 37.447-19.743-20.006-2.92-35.164-2.903-35.179-12.291 2.149-21.142 7.402-22.388 17.007 0 0-11.065-24.209 19.315-26.807 14.061-1.204 14.496-9.188 12.404-17.695-8.821-3.459-30.129-10.053-36.996 3.695 0 0 5.012-24.51 33.657-14.907-0.477-1.733-0.834-3.355-0.937-4.786-1.995-27.623 13.071-43.283 45.463-38.869-2.311-12.687 0.378-27.535 11.123-41.27-4.276-4.193-10.775-3.137-10.775-3.137 6.235-6.417 11.979-3.329 14.742-1.056 7.81-6.879 18.781-9.786 29.993-10.585-0.571-7.368-4.005-21.893-22.56-17.751 0 0 28.196-28.216 46.034 18.594 6.056 0.761 11.427 1.795 15.477 2.695 19.682-38.112 15.068-56.636-3.887-86.408-8.678 20.166-30.642 39.666-84.282 34.663-0.291-0.027-0.572-0.043-0.862-0.068-7.116 4.954-7.123 13.556-7.123 13.556-4.561-6.172-2.495-11.173-0.329-14.038-7.793-0.318-14.985-0.014-21.567 0.841-16.72 15.736-25.274 38.256 1.929 56.814 0 0-45.271-16.89-22.333-51.828-36.201 13.785-44.042 48.678-27.121 74.531 1.19-1.932 3.444-3.998 7.689-4.006 0 0-5.073 3.001-4.821 7.99 7.19 9.149 17.709 16.859 31.398 21.61 0 0-24.364-2.55-41.47-20.881-33.903 19.536-9.727 57.744-9.727 57.744-33.895-31.695-6.855-61.495 1.393-69.229-4.807-8.715-7.971-19.738-8.049-33.678-0.071-12.901 4.612-25.039 13.161-35.129-4.17-6.642-11.795-7.684-11.795-7.684 8.688-4.764 13.958 1.155 15.637 3.56 10.572-10.425 25.669-18.147 44.152-21.465-4.603-7.027-12.28-4.221-12.28-4.221 11.34-8.39 17.201-0.16 18.998 3.217 5.768-0.673 11.821-0.939 18.139-0.738 6.037 0.191 12.849-0.32 19.798-1.586-10.789-4.084-19.424-15.766-19.424-31.523 0-31.83-25.714-12.479-25.714-12.479 5.461-20.479 45.891-19.093 49.959 14.356 4.058 33.374 29.087 16.065 29.199 15.987 11.724-8.593 19.107-21.018 16.071-37.796-11.043-5.651-15.71 4.071-15.71 4.071 1.913-11.778 9.323-12.304 13.767-11.483-0.539-1.586-1.155-3.203-1.872-4.858l1.848 0.731c-16.425-43.406-10.102-88.638-10.102-88.638s56.688-16.53 108.44-1.328c0 0-29.184 46.118-20.609 100.78 0.7 2.232 1.984 5.74 4.132 9.842l-2e-3 -6e-3c11.486 8.094 26.191 27.037 53.396 5.021 0 0-5.954 20.191-25.604 22.432 8.739 4.404 19.718 7.501 33.478 7.984 1.789-3.778 5.819-7.362 14.902-5.155 0 0-5.7 0.277-8.459 5.185 0.764-0.018 1.53-0.036 2.31-0.07 18.654-0.794 34.765 1.995 48.073 7.248 1.997-2.615 7.133-7.53 15.275-3.066 0 0-5.752 0.786-9.996 5.342 23.494 11.062 37.01 30.265 38.779 50.331 2.457-1.563 6.029-2.403 10.691 0.152" fill="#fff"/></g><g transform="translate(422.44 585.25)"><path d="m0 0s-0.578-3.923 1.508-6.41 6.049-2.602 6.049-2.602 0.578 3.922-1.508 6.41c-2.086 2.489-6.049 2.602-6.049 2.602" fill="#fff"/></g><g transform="translate(433.03 583.7)"><path d="m0 0c-0.742-3.16 1.541-6.401 1.541-6.401s3.488 1.884 4.23 5.046c0.743 3.161-1.541 6.402-1.541 6.402s-3.488-1.885-4.23-5.047" fill="#fff"/></g><g transform="translate(420.45 568.71)"><path d="m0 0c3.207-0.518 6.279 1.989 6.279 1.989s-2.127 3.346-5.332 3.864c-3.207 0.516-6.277-1.988-6.277-1.988s2.125-3.346 5.33-3.865" fill="#fff"/></g><g transform="translate(446.4 574.35)"><path d="m0 0c2.898 1.462 3.916 5.294 3.916 5.294s-3.684 1.461-6.584-1e-3c-2.898-1.462-3.918-5.29-3.918-5.29s3.686-1.463 6.586-3e-3" fill="#fff"/></g><g transform="translate(419.99 497)"><path d="m0 0c2.799 3.541 1.836 8.966 1.836 8.966s-5.502-0.317-8.301-3.857c-2.797-3.542-1.838-8.969-1.838-8.969s5.502 0.317 8.303 3.86" fill="#fff"/></g><g transform="translate(425.44 488.42)"><path d="m0 0s-2.553 3.033-5.799 3.119c-3.244 0.087-5.955-2.806-5.955-2.806s2.551-3.033 5.797-3.121c3.246-0.085 5.957 2.808 5.957 2.808" fill="#fff"/></g><g transform="translate(419.18 473.8)"><path d="m0 0s0.686 3.903-1.334 6.446-5.975 2.765-5.975 2.765-0.685-3.905 1.332-6.45c2.018-2.542 5.977-2.761 5.977-2.761" fill="#fff"/></g><g transform="translate(335.12 252.83)"><path d="m0 0c-2.961-1.96-3.572-6.25-3.572-6.25s4.189-1.115 7.149 0.844c2.96 1.961 3.572 6.251 3.572 6.251s-4.188 1.114-7.149-0.845" fill="#fff"/></g><g transform="translate(335.56 256.74)"><path d="m0 0c2.44-1.678 5.949-0.811 5.949-0.811s-0.445 3.586-2.885 5.266c-2.439 1.678-5.949 0.811-5.949 0.811s0.447-3.588 2.885-5.266" fill="#fff"/></g><g transform="translate(520.55 379.95)"><path d="m0 0c1.701-3.609 6.373-4.981 6.373-4.981s1.916 4.475 0.215 8.085c-1.701 3.608-6.375 4.981-6.375 4.981s-1.914-4.479-0.213-8.085" fill="#fff"/></g><g transform="translate(520.96 399.58)"><path d="m0 0c-1.492-3.222 0.236-7.196 0.236-7.196s4.151 1.248 5.645 4.469c1.494 3.222-0.236 7.195-0.236 7.195s-4.153-1.247-5.645-4.468" fill="#fff"/></g><g transform="translate(528.51 393.29)"><path d="m0 0c-2.957 0.148-5.49-2.43-5.49-2.43s2.26-2.819 5.217-2.97c2.957-0.149 5.492 2.43 5.492 2.43s-2.262 2.821-5.219 2.97" fill="#fff"/></g><g transform="translate(378.5 617.19)"><path d="m0 0c3.406 2.078 4.268 6.872 4.268 6.872s-4.656 1.422-8.061-0.656c-3.405-2.079-4.269-6.872-4.269-6.872s4.659-1.422 8.062 0.656" fill="#fff"/></g><g transform="translate(372.74 611.25)"><path d="m0 0s0.064-5.964 3.75-9.168c3.687-3.207 9.601-2.439 9.601-2.439s-0.062 5.961-3.748 9.168c-3.687 3.205-9.603 2.439-9.603 2.439" fill="#fff"/></g><g transform="translate(357.94 615.48)"><path d="m0 0c3.364-1.138 7.129 1.008 7.129 1.008s-1.687 3.993-5.049 5.132c-3.364 1.138-7.128-1.008-7.128-1.008s1.686-3.994 5.048-5.132" fill="#fff"/></g><g transform="translate(356.56 604.36)"><path d="m0 0c3.494 0.637 5.746 4.339 5.746 4.339s-3.411 2.674-6.904 2.039c-3.494-0.636-5.745-4.338-5.745-4.338s3.411-2.675 6.903-2.04" fill="#fff"/></g><g transform="translate(367.38 618.47)"><path d="m0 0s2.561 2.55 2.393 5.507c-0.17 2.956-3.006 5.197-3.006 5.197s-2.562-2.552-2.393-5.507c0.17-2.956 3.006-5.197 3.006-5.197" fill="#fff"/></g><g transform="translate(247.09 293.13)"><path d="m0 0c-0.751-3.471 1.806-6.969 1.806-6.969s3.778 2.126 4.529 5.595c0.75 3.471-1.806 6.97-1.806 6.97s-3.777-2.126-4.529-5.596" fill="#fff"/></g><g transform="translate(249.51 299.81)"><path d="m0 0s-2.822 2.257-5.741 1.756c-2.918-0.502-4.826-3.572-4.826-3.572s2.824-2.258 5.742-1.757c2.918 0.503 4.825 3.573 4.825 3.573" fill="#fff"/></g><g transform="translate(518.88 280.2)"><path d="m0 0c0.652 3.489-2.004 6.914-2.004 6.914s-3.715-2.232-4.369-5.722c-0.654-3.489 2.002-6.914 2.002-6.914s3.715 2.232 4.371 5.722" fill="#fff"/></g><g transform="translate(525.22 286.68)"><path d="m0 0c-2.496 1.595-5.973 0.609-5.973 0.609s0.567-3.569 3.061-5.166c2.494-1.592 5.973-0.608 5.973-0.608s-0.567 3.57-3.061 5.165" fill="#fff"/></g><g transform="translate(473.41 356.66)"><path d="m0 0s5.186 1.999 6.781 6.264c1.598 4.264-1.002 9.178-1.002 9.178s-5.187-2.002-6.783-6.266c-1.594-4.264 1.004-9.176 1.004-9.176" fill="#fff"/></g><g transform="translate(454.36 366.13)"><path d="m0 0s0.242-5.552 3.773-8.423c3.536-2.874 9.02-1.976 9.02-1.976s-0.242 5.553-3.775 8.424c-3.534 2.871-9.018 1.975-9.018 1.975" fill="#fff"/></g><g transform="translate(569.42 438.74)"><path d="m0 0c-0.666-3.413 1.908-6.79 1.908-6.79s3.658 2.157 4.326 5.572c0.668 3.414-1.908 6.792-1.908 6.792s-3.658-2.159-4.326-5.574" fill="#fff"/></g><g transform="translate(559.69 430.83)"><path d="m0 0c3.025-1.723 7.047-0.358 7.047-0.358s-0.879 4.156-3.902 5.877c-3.024 1.72-7.045 0.358-7.045 0.358s0.879-4.155 3.9-5.877" fill="#fff"/></g><g transform="translate(240.21 408)"><path d="m0 0c-2.137-1.525-2.478-4.713-2.478-4.713s3.124-0.714 5.261 0.81c2.138 1.524 2.479 4.713 2.479 4.713s-3.125 0.715-5.262-0.81" fill="#fff"/></g><g transform="translate(238.15 399.66)"><path d="m0 0s0.318-3.189 2.446-4.729c2.126-1.54 5.256-0.846 5.256-0.846s-0.32 3.189-2.445 4.728c-2.127 1.54-5.257 0.847-5.257 0.847" fill="#fff"/></g></g></g></g></g></svg>
